<svg width="48" height="48" viewBox="0 0 48 48" fill="none" xmlns="http://www.w3.org/2000/svg">
<path fill-rule="evenodd" clip-rule="evenodd" d="M27.633 18.6593L26.066 19.8521L26.638 21.7341C26.6828 21.8796 26.6817 22.0359 26.6351 22.1807C26.5884 22.3255 26.4985 22.4513 26.3782 22.5402C26.2579 22.629 26.1135 22.6762 25.9656 22.675C25.8177 22.6739 25.674 22.6244 25.555 22.5338L24 21.3503L22.445 22.5338C22.3261 22.6249 22.1822 22.6747 22.0341 22.676C21.8859 22.6774 21.7412 22.6302 21.6207 22.5413C21.5002 22.4524 21.4102 22.3264 21.3635 22.1814C21.3168 22.0363 21.316 21.8797 21.361 21.7341L21.934 19.8521L20.367 18.6593C20.2495 18.5686 20.1625 18.4422 20.1183 18.2978C20.074 18.1534 20.0747 17.9984 20.1203 17.8544C20.1659 17.7105 20.2541 17.5849 20.3724 17.4954C20.4907 17.4058 20.6333 17.3568 20.78 17.3551H22.722L23.333 15.4442C23.3795 15.3002 23.4688 15.175 23.5882 15.0862C23.7075 14.9975 23.8509 14.9497 23.998 14.9497C24.1451 14.9497 24.2885 14.9975 24.4078 15.0862C24.5272 15.175 24.6165 15.3002 24.663 15.4442L25.274 17.3551H27.217C27.3645 17.3554 27.5081 17.4037 27.6275 17.493C27.7468 17.5824 27.8358 17.7084 27.8818 17.853C27.9277 17.9975 27.9284 18.1534 27.8835 18.2984C27.8387 18.4433 27.7507 18.57 27.632 18.6604L27.633 18.6593ZM16.003 17.5099V22.2944C15.31 21.7409 14.749 21.0311 14.3629 20.2193C13.9769 19.4075 13.7761 18.5153 13.776 17.611C13.776 17.5161 13.7941 17.4221 13.8294 17.3344C13.8646 17.2467 13.9163 17.167 13.9814 17.0999C14.0784 17 14.3629 17 14.5 17H16.003V17.5099ZM34.5 15H31.996L32 17H33.5C33.6857 17 33.8857 16.9648 34.017 17.1003C34.1483 17.2357 34.222 17.4194 34.222 17.611C34.2224 18.5154 34.0219 19.4078 33.636 20.2199C33.2502 21.0319 32.6891 21.7419 31.996 22.2954V13.8583C31.996 12.8327 31.66 12 31.247 12H16.752C16.339 12 16.003 12.8327 16.003 13.8593V15H13.705C12.764 15 12 15.8435 12 16.8144V17.611C12 20.7085 13.768 23.3892 16.318 24.6325L21.435 27.7125C21.778 27.9188 22.0311 28.3181 22.0341 28.7288C22.0401 29.7059 22.0421 30.7202 22.0421 31.6488H21.268C20.658 31.6488 20.552 31.9367 20.357 32.2349L19.87 32.9789C19.373 32.9789 18.27 32.8448 18 33.5L17.422 35.1973C17.173 36 18.249 36 18.539 36H29.46C29.749 36 30.824 36 30.576 35.1973L30 33.5C29.731 32.8448 28.498 33 28 33L27.641 32.2349C27.447 31.9357 27.341 31.6488 26.729 31.6488H25.9556C25.9556 30.6851 25.9586 29.6523 25.9656 28.7288C25.9696 28.3181 26.219 27.9188 26.564 27.7125L31.68 24.6325C32.9709 24.0048 34.0624 23.0115 34.8272 21.7684C35.592 20.5253 35.9988 19.0835 36 17.611V16.8144C36 15.8435 35.441 15 34.5 15Z" fill="#79818C"/>
</svg>
