<svg width="48" height="48" viewBox="0 0 48 48" fill="none" xmlns="http://www.w3.org/2000/svg">
<path fill-rule="evenodd" clip-rule="evenodd" d="M24 37C31.1797 37 37 31.1797 37 24C37 16.8203 31.1797 11 24 11C16.8203 11 11 16.8203 11 24C11 31.1797 16.8203 37 24 37ZM22 17C21.4477 17 21 17.4477 21 18V23H20C19.4477 23 19 23.4477 19 24C19 24.5523 19.4477 25 20 25H21V26H20C19.4477 26 19 26.4477 19 27C19 27.5523 19.4477 28 20 28H21V30C21 30.5523 21.4477 31 22 31C22.5523 31 23 30.5523 23 30V28H25C25.5523 28 26 27.5523 26 27C26 26.4477 25.5523 26 25 26H23V25H25C27.2091 25 29 23.2091 29 21C29 18.7909 27.2091 17 25 17H22.2857C22.2372 17 22.1895 17.0035 22.1429 17.0101C22.0962 17.0035 22.0485 17 22 17ZM27 21C27 22.1046 26.1046 23 25 23H23V19H25C26.1046 19 27 19.8954 27 21Z" fill="#79818C"/>
</svg>
