<svg width="48" height="48" viewBox="0 0 48 48" fill="none" xmlns="http://www.w3.org/2000/svg">
<path fill-rule="evenodd" clip-rule="evenodd" d="M35.8014 29.676L30.5665 26.077C29.903 25.6209 29 26.0959 29 26.9011L29 29L19.5 29C18.6716 29 18 29.6716 18 30.5C18 31.3284 18.6716 32 19.5 32L29 32L29 34.099C29 34.9042 29.903 35.3792 30.5665 34.923L35.8014 31.3241C36.3794 30.9267 36.3794 30.0733 35.8014 29.676ZM17.4335 22.923L12.1986 19.3241C11.6207 18.9267 11.6207 18.0733 12.1986 17.676L17.4335 14.077C18.097 13.6208 19 14.0959 19 14.901L19 17.0854C19.1564 17.0301 19.3247 17 19.5 17L29.5 17C30.3284 17 31 17.6716 31 18.5C31 19.3284 30.3284 20 29.5 20L19.5 20C19.3247 20 19.1564 19.9699 19 19.9147L19 22.099C19 22.9042 18.097 23.3792 17.4335 22.923Z" fill="#79818C"/>
</svg>
