<svg width="48" height="48" viewBox="0 0 48 48" fill="none" xmlns="http://www.w3.org/2000/svg">
<path fill-rule="evenodd" clip-rule="evenodd" d="M23.5 15H24.5C25.2263 15 25.6708 15.0011 26.0053 15.0239C26.2894 15.0433 26.3745 15.0728 26.3827 15.0761C26.3836 15.0765 26.3836 15.0765 26.3827 15.0761C26.6277 15.1776 26.8224 15.3723 26.9239 15.6173C26.9235 15.6164 26.9235 15.6164 26.9239 15.6173C26.9272 15.6255 26.9567 15.7106 26.9761 15.9947C26.9931 16.2445 26.9981 16.5558 26.9995 17H21.0005C21.0019 16.5558 21.0069 16.2445 21.0239 15.9947C21.0433 15.7106 21.0728 15.6255 21.0761 15.6173C21.0765 15.6164 21.0765 15.6164 21.0761 15.6173C21.1776 15.3723 21.3723 15.1776 21.6173 15.0761C21.6164 15.0765 21.6164 15.0765 21.6173 15.0761C21.6255 15.0728 21.7106 15.0433 21.9947 15.0239C22.3292 15.0011 22.7737 15 23.5 15ZM19.0005 17C19.0037 15.927 19.029 15.3332 19.2284 14.8519C19.5328 14.1169 20.1169 13.5328 20.8519 13.2284C21.4033 13 22.1022 13 23.5 13H24.5C25.8978 13 26.5967 13 27.1481 13.2284C27.8831 13.5328 28.4672 14.1169 28.7716 14.8519C28.971 15.3332 28.9963 15.927 28.9995 17H31.2C32.8802 17 33.7202 17 34.362 17.327C34.9265 17.6146 35.3854 18.0735 35.673 18.638C36 19.2798 36 20.1198 36 21.8V25.1377C32.682 25.6137 29.3428 25.8913 26.0001 25.9705V25.5C26.0001 25.2239 25.7762 25 25.5001 25H22.5001C22.2239 25 22.0001 25.2239 22.0001 25.5V25.9705C18.6573 25.8913 15.318 25.6137 12 25.1377V21.8C12 20.1198 12 19.2798 12.327 18.638C12.6146 18.0735 13.0735 17.6146 13.638 17.327C14.2798 17 15.1198 17 16.8 17H19.0005ZM26.0001 27.971C29.3424 27.8937 32.6813 27.6226 36 27.1577V29.2C36 30.8802 36 31.7202 35.673 32.362C35.3854 32.9265 34.9265 33.3854 34.362 33.673C33.7202 34 32.8802 34 31.2 34H16.8C15.1198 34 14.2798 34 13.638 33.673C13.0735 33.3854 12.6146 32.9265 12.327 32.362C12 31.7202 12 30.8802 12 29.2V27.1577C15.3187 27.6226 18.6577 27.8937 22.0001 27.971V28.5C22.0001 28.7761 22.2239 29 22.5001 29H25.5001C25.7762 29 26.0001 28.7761 26.0001 28.5V27.971Z" fill="#79818C"/>
</svg>
